<svg width="23" height="23" viewBox="0 0 23 23" fill="none" xmlns="http://www.w3.org/2000/svg">
<path d="M13.4167 1.91667H5.75004C5.24171 1.91667 4.7542 2.1186 4.39475 2.47805C4.03531 2.83749 3.83337 3.325 3.83337 3.83333V19.1667C3.83337 19.675 4.03531 20.1625 4.39475 20.522C4.7542 20.8814 5.24171 21.0833 5.75004 21.0833H17.25C17.7584 21.0833 18.2459 20.8814 18.6053 20.522C18.9648 20.1625 19.1667 19.675 19.1667 19.1667V7.66667M13.4167 1.91667L19.1667 7.66667M13.4167 1.91667V7.66667H19.1667M15.3334 12.4583H7.66671M15.3334 16.2917H7.66671M9.58337 8.625H7.66671" stroke="#151515" stroke-width="1.5" stroke-linecap="round" stroke-linejoin="round"/>
</svg>
